#!OML:ASF H:\Terrain\Patient Classification 1\Takeo\Monday\TakeoMonday.ASF
:FULLY-SPECIFIED
:DEGREES
870
root 9.44986 17.3471 0.044397 8.0577 6.03561 -6.85752
lowerback 14.6205 5.99989 -0.786158
upperback 7.9783 7.73249 -5.20959
thorax 0.98036 3.98984 -6.05717
lowerneck -7.49518 -11.0191 -9.34524
upperneck -12.8909 -13.1445 17.6742
head -0.654759 -6.59201 6.47392
rclavicle 2.06736e-014 -3.18055e-015
rhumerus 62.4237 -9.52105 -44.2026
rradius 26.2394
rwrist 1.99556
rhand -27.3194 19.0522
rfingers 7.12502
rthumb -0.728595 -10.9263
lclavicle 2.06736e-014 -3.18055e-015
lhumerus -32.2285 -8.63466 94.4755
lradius 111.007
lwrist 19.7792
lhand -25.9535 3.38205
lfingers 7.12502
lthumb 0.590639 33.361
rfemur -8.13198 -27.337 33.4301
rtibia 24.2267
rfoot -25.1653 -24.7204
rtoes -2.80822
lfemur -36.9635 -1.06538 -12.9166
ltibia 42.2198
lfoot -8.99761 -0.584802
ltoes -2.4742
871
root 9.45172 17.3452 0.0583125 8.16292 5.993 -6.25381
lowerback 14.3242 6.06416 -1.46213
upperback 8.04064 7.75273 -5.37341
thorax 1.1403 3.98271 -5.8219
lowerneck -7.52318 -10.9728 -9.42917
upperneck -13.0496 -13.0524 17.7493
head -0.695349 -6.54559 6.52154
rclavicle -1.16885e-013 4.29375e-014
rhumerus 61.5625 -9.20921 -43.8006
rradius 27.4659
rwrist 0.859557
rhand -27.5869 18.9437
rfingers 7.12502
rthumb -0.986926 -11.0338
lclavicle -1.16885e-013 4.29375e-014
lhumerus -32.2766 -8.70261 94.6317
lradius 110.986
lwrist 19.7501
lhand -25.8121 3.53545
lfingers 7.12502
lthumb 0.727271 33.514
rfemur -8.29923 -27.2514 32.7802
rtibia 24.5519
rfoot -25.3863 -24.84
rtoes -2.73617
lfemur -36.8929 -1.20024 -13.6033
ltibia 42.2171
lfoot -9.08871 -0.426135
ltoes -3.15171
872
root 9.45711 17.3413 0.0667355 8.11493 5.95799 -5.97388
lowerback 14.1962 6.0413 -1.80862
upperback 8.10379 7.6925 -5.4114
thorax 1.22989 3.94195 -5.64549
lowerneck -7.82982 -10.8812 -9.37948
upperneck -12.9901 -12.9242 17.4952
head -0.673092 -6.46192 6.42951
rclavicle 7.95139e-015 3.02153e-014
rhumerus 60.9313 -8.87213 -43.9375
rradius 28.6932
rwrist 0.256137
rhand -27.6199 19.0155
rfingers 7.12502
rthumb -1.01876 -10.9619
lclavicle 7.95139e-015 3.02153e-014
lhumerus -32.2434 -8.60031 94.7929
lradius 110.833
lwrist 19.6288
lhand -26.1055 3.36314
lfingers 7.12502
lthumb 0.443856 33.3424
rfemur -8.36391 -27.1472 32.4055
rtibia 24.943
rfoot -25.7901 -24.8793
rtoes -2.67401
lfemur -36.6999 -1.2711 -13.9552
ltibia 42.1529
lfoot -9.11984 -0.281137
ltoes -4.32967
873
root 9.46421 17.3383 0.0694188 8.04182 5.93435 -5.84051
lowerback 14.185 5.95674 -2.05916
upperback 8.04305 7.54799 -5.39527
thorax 1.12268 3.85715 -5.47644
lowerneck -8.28599 -10.7185 -9.13229
upperneck -12.58 -12.751 16.9218
head -0.572731 -6.34378 6.19384
rclavicle 1.27222e-014 -3.18055e-014
rhumerus 60.1046 -8.21663 -43.9492
rradius 30.2505
rwrist -0.446406
rhand -27.8938 19.2883
rfingers 7.12502
rthumb -1.28339 -10.6876
lclavicle 1.27222e-014 -3.18055e-014
lhumerus -32.3967 -8.47888 94.8636
lradius 110.616
lwrist 19.4844
lhand -26.2374 3.25389
lfingers 7.12502
lthumb 0.316465 33.2334
rfemur -8.34858 -26.9622 32.1825
rtibia 25.1917
rfoot -26.0875 -24.9181
rtoes -2.53487
lfemur -36.5533 -1.22535 -14.1725
ltibia 42.0891
lfoot -9.09514 -0.2687
ltoes -5.09526
874
root 9.47373 17.3406 0.0705465 7.925 5.88644 -5.71962
lowerback 14.2664 5.8748 -2.18008
upperback 7.91662 7.41223 -5.47727
thorax 0.929877 3.78415 -5.49795
lowerneck -8.46215 -10.6051 -8.84325
upperneck -12.2299 -12.655 16.5253
head -0.509379 -6.28447 6.01612
rclavicle -8.5875e-014 2.54444e-014
rhumerus 59.0596 -7.58875 -44.3048
rradius 31.9672
rwrist -0.833294
rhand -27.7697 19.785
rfingers 7.12502
rthumb -1.16346 -10.1915
lclavicle -8.5875e-014 2.54444e-014
lhumerus -32.5963 -8.50224 94.6922
lradius 110.344
lwrist 19.1395
lhand -25.7308 3.03101
lfingers 7.12502
lthumb 0.805781 33.0092
rfemur -8.1651 -26.8713 31.9436
rtibia 25.202
rfoot -25.9193 -25.0409
rtoes -3.02192
lfemur -36.4015 -1.17733 -14.3692
ltibia 42.0754
lfoot -9.13724 -0.280137
ltoes -4.76368
875
root 9.47977 17.3488 0.0716984 7.77769 5.74786 -5.78437
lowerback 14.2703 5.87979 -1.97787
upperback 7.86223 7.43989 -5.59767
thorax 0.915853 3.80883 -5.74393
lowerneck -8.3282 -10.618 -8.7111
upperneck -12.2992 -12.6831 16.5334
head -0.55522 -6.31104 6.0057
rclavicle 1.66979e-014 -6.36111e-015
rhumerus 57.7989 -7.15998 -44.3398
rradius 33.6879
rwrist -1.46177
rhand -27.2364 19.9612
rfingers 7.12502
rthumb -0.648459 -10.0176
lclavicle 1.66979e-014 -6.36111e-015
lhumerus -32.152 -9.01482 94.3658
lradius 109.807
lwrist 18.7795
lhand -25.3038 2.79789
lfingers 7.12502
lthumb 1.21811 32.7742
rfemur -7.89358 -26.7458 31.9046
rtibia 25.1036
rfoot -25.7455 -25.1362
rtoes -3.80971
lfemur -36.2704 -1.29645 -14.2519
ltibia 42.1048
lfoot -9.1921 -0.11066
ltoes -2.99495
876
root 9.48611 17.3553 0.0733529 7.5987 5.59634 -5.95144
lowerback 14.1759 5.91132 -1.61252
upperback 7.92087 7.53637 -5.63994
thorax 1.09088 3.87523 -5.98639
lowerneck -8.52234 -10.7489 -8.82581
upperneck -12.3143 -12.8325 16.6978
head -0.48927 -6.37563 6.05136
rclavicle 2.22639e-014 -2.8625e-014
rhumerus 56.4891 -6.73276 -43.9113
rradius 35.5378
rwrist -2.31711
rhand -27.7283 19.9716
rfingers 7.12502
rthumb -1.12353 -10.0052
lclavicle 2.22639e-014 -2.8625e-014
lhumerus -31.5322 -9.66191 94.2103
lradius 109.372
lwrist 18.7105
lhand -25.0748 2.9077
lfingers 7.12502
lthumb 1.43934 32.8826
rfemur -7.59184 -26.6734 31.9295
rtibia 24.9713
rfoot -25.5484 -25.1116
rtoes -3.71749
lfemur -36.1108 -1.42212 -14.0043
ltibia 42.1661
lfoot -9.25871 0.0322369
ltoes -1.595
